<?xml version="1.0" encoding="iso-8859-1"?>
<!-- Uploaded to: SVG Repo, www.svgrepo.com, Generator: SVG Repo Mixer Tools -->
<svg height="800px" width="800px" version="1.1" id="Layer_1" xmlns="http://www.w3.org/2000/svg" xmlns:xlink="http://www.w3.org/1999/xlink" 
	 viewBox="0 0 512 512" xml:space="preserve">
<path style="fill:#39B54A;" d="M354.46,217.38c0-20.165-16.347-36.512-36.512-36.512c-0.233,0-0.462,0.013-0.694,0.017
	c-3.997-25.932-25.05-45.716-50.434-45.716c-2.794,0-5.534,0.248-8.206,0.71c-7.206-8.739-18.116-14.311-30.328-14.311
	c-15.203,0-28.38,8.641-34.913,21.274c-3.169-0.825-6.491-1.265-9.919-1.265c-19.157,0-35.105,13.715-38.58,31.859
	c-16.125,3.789-28.133,18.254-28.133,35.535c0,10.847,4.734,20.583,12.243,27.271c-1.489,5.06-2.297,10.423-2.297,15.981
	c0,30.497,24.097,55.219,53.821,55.219c5.21,0,10.248-0.76,15.012-2.178c16.345-4.863,33.896-3.739,49.766,2.504
	c6.902,2.716,14.421,4.207,22.288,4.207c33.221,0,60.215-26.583,60.917-59.636C343.515,247.815,354.46,233.878,354.46,217.38z"/>
<path style="fill:#A7A9AC;" d="M261.105,317.701c-3.11,35.391-2.716,71.013,1.185,106.345c-17.793,0-35.586,0-53.379,0
	c4.34-39.315,4.34-78.988,0-118.302L261.105,317.701z"/>
<g>
	<path style="fill:#231F20;" d="M21.787,265.97c0-93.686,60.433-175.027,147.281-203.282l-24.251,32.157
		c-3.623,4.804-2.666,11.634,2.137,15.256c1.964,1.482,4.267,2.197,6.551,2.197c3.302,0,6.564-1.496,8.706-4.335l42.916-56.904
		c2.1-2.785,2.741-6.409,1.72-9.744c-1.021-3.336-3.576-5.982-6.875-7.117l-67.399-23.176c-5.69-1.954-11.888,1.07-13.844,6.759
		c-1.955,5.69,1.07,11.888,6.759,13.844l33.485,11.515c-39.951,13.768-75.875,38.241-103.475,70.935
		C19.71,156.465,0,210.409,0,265.97c0,27.261,4.631,54.007,13.765,79.493c1.595,4.45,5.786,7.221,10.255,7.221
		c1.22,0,2.461-0.207,3.674-0.642c5.664-2.029,8.609-8.266,6.58-13.93C25.989,314.991,21.787,290.719,21.787,265.97z"/>
	<path style="fill:#231F20;" d="M414.025,402.991c-4.588-3.893-11.461-3.332-15.356,1.255
		c-40.749,48.005-100.185,75.538-163.068,75.538c-53.27,0-104.061-19.763-143.119-54.987l40.061,4.936
		c5.965,0.74,11.408-3.508,12.143-9.48c0.735-5.971-3.509-11.408-9.48-12.143l-70.739-8.715c-3.46-0.426-6.92,0.831-9.299,3.382
		c-2.379,2.551-3.392,6.087-2.726,9.512l13.628,69.958c1.013,5.202,5.572,8.813,10.681,8.813c0.691,0,1.391-0.066,2.095-0.204
		c5.905-1.15,9.76-6.871,8.609-12.776l-6.743-34.615c42.647,37.25,97.454,58.105,154.886,58.105
		c69.292,0,134.783-30.334,179.679-83.226C419.175,413.758,418.611,406.883,414.025,402.991z"/>
	<path style="fill:#231F20;" d="M509.325,288.789c-3.949-4.538-10.829-5.017-15.369-1.069l-27.12,23.593
		c2.903-14.863,4.366-30.022,4.366-45.343c0-55.56-19.71-109.504-55.497-151.896c-35.361-41.885-84.382-70.28-138.033-79.955
		c-5.917-1.072-11.586,2.866-12.653,8.788c-1.068,5.921,2.866,11.586,8.787,12.654C375.561,73.91,449.415,162.4,449.415,265.969
		c0,14.664-1.487,29.157-4.413,43.346l-15.46-36.465c-2.349-5.539-8.745-8.124-14.281-5.777c-5.539,2.349-8.126,8.742-5.778,14.282
		l27.821,65.619c1.362,3.213,4.18,5.578,7.579,6.362c0.813,0.187,1.634,0.279,2.451,0.279c2.6,0,5.147-0.932,7.149-2.675
		l53.772-46.781C512.795,300.208,513.273,293.328,509.325,288.789z"/>
	<path style="fill:#231F20;" d="M188.028,130.89c-1.519-0.137-3.045-0.207-4.574-0.207c-21.752,0-40.793,14.02-47.564,34.164
		c-17.981,7.019-30.042,24.311-30.042,44.123c0,11.226,4.001,22.037,11.151,30.53c-0.801,4.182-1.206,8.44-1.206,12.72
		c0,36.454,29.03,66.112,64.714,66.112c6.157,0,12.253-0.886,18.119-2.63c0.11-0.033,0.222-0.059,0.333-0.092
		c3.337,35.637,3.05,71.669-0.877,107.238c-0.34,3.079,0.647,6.156,2.714,8.463c2.067,2.307,5.016,3.625,8.115,3.625h53.379
		c3.097,0,6.048-1.318,8.115-3.625c2.065-2.307,3.053-5.385,2.712-8.463c-3.661-33.175-4.157-66.831-1.495-100.106
		c17.407-0.964,33.696-8.121,46.232-20.417c11.715-11.489,19.022-26.339,21-42.412c15.913-7.877,26.498-24.415,26.498-42.538
		c0-23.342-16.958-42.798-39.2-46.695c-7.81-27.348-31.586-46.41-59.334-46.41c-1.338,0-2.682,0.047-4.028,0.141
		c-9.275-8.797-21.549-13.741-34.507-13.741C212.207,110.674,197.407,118.255,188.028,130.89z M220.938,413.153
		c2.921-33.191,2.811-66.692-0.314-99.862c6.974,0.441,13.97,1.976,20.675,4.615c2.826,1.111,5.708,2.022,8.631,2.762
		c-2.477,30.722-2.368,61.759,0.333,92.486H220.938z M203.049,147.846c4.906-9.489,14.577-15.385,25.237-15.385
		c8.511,0,16.501,3.771,21.924,10.348c2.487,3.018,6.4,4.469,10.256,3.805c2.12-0.366,4.258-0.551,6.354-0.551
		c19.726,0,36.41,15.343,39.668,36.483c0.83,5.388,5.53,9.307,10.966,9.232l0.493-0.016c14.127,0,25.62,11.493,25.62,25.62
		c0,11.212-7.49,21.298-18.217,24.529c-4.519,1.362-7.648,5.479-7.749,10.2c-0.573,27.004-23.015,48.973-50.026,48.973
		c-6.323,0-12.48-1.161-18.3-3.45c-10.586-4.165-21.761-6.264-32.818-6.264c-8.172,0-16.283,1.147-24.042,3.455
		c-3.849,1.145-7.854,1.726-11.907,1.726c-23.671,0-42.927-19.884-42.927-44.325c0-4.38,0.624-8.723,1.855-12.905
		c1.19-4.043-0.059-8.409-3.206-11.212c-5.462-4.864-8.595-11.838-8.595-19.135c0-11.949,8.114-22.2,19.73-24.93
		c4.184-0.983,7.399-4.335,8.207-8.556c2.555-13.336,14.279-23.015,27.881-23.015c2.429,0,4.843,0.307,7.175,0.914
		C195.553,154.666,200.711,152.367,203.049,147.846z"/>
	<path style="fill:#231F20;" d="M264.285,208.492c9.069,6.257,14.271,15.333,14.271,24.897c0,6.017,4.878,10.894,10.894,10.894
		s10.894-4.877,10.894-10.894c0-16.834-8.632-32.445-23.683-42.83c-4.953-3.416-11.736-2.171-15.153,2.78
		C258.089,198.29,259.334,205.075,264.285,208.492z"/>
	<path style="fill:#231F20;" d="M234.981,191.995l0.338,0.001c0.028,0,0.057,0,0.085,0c5.977,0,10.846-4.823,10.891-10.811
		c0.046-6.017-4.794-10.931-10.81-10.976l-0.503-0.002c-6.017,0-10.894,4.877-10.894,10.894S228.965,191.995,234.981,191.995z"/>
</g>
</svg>