<?xml version="1.0" encoding="iso-8859-1"?>
<!-- Uploaded to: SVG Repo, www.svgrepo.com, Generator: SVG Repo Mixer Tools -->
<svg height="800px" width="800px" version="1.1" id="Layer_1" xmlns="http://www.w3.org/2000/svg" xmlns:xlink="http://www.w3.org/1999/xlink" 
	 viewBox="0 0 504.184 504.184" xml:space="preserve">
<g transform="translate(1 1)">
	<g>
		<path style="fill:#FFE100;" d="M368.18,234.305c6.715,0,11.751,2.518,16.787,5.875c-9.233-53.718-46.164-182.138-132.616-182.138
			c-85.613,0-123.384,125.062-132.616,180.459c4.197-2.518,8.393-4.197,14.269-4.197c7.554,0,14.269,3.357,18.466,8.393h0.839
			c2.518-11.751,36.092-151.082,97.364-151.082c62.111,0,95.685,132.616,99.882,150.243
			C355.59,236.823,361.466,234.305,368.18,234.305"/>
		<path style="fill:#FFE100;" d="M494.082,389.584l-0.839-5.036c-2.518-14.269-6.715-28.538-12.59-41.967
			c-4.197-10.072-8.393-22.662-10.072-35.252c-3.357-18.466-4.197-36.092-2.518-50.361c0.839-8.393,1.679-15.948,0-24.341v-0.839
			c-4.197-22.662-24.341-39.449-47.003-39.449h-16.787c-8.393,2.518-18.466,5.036-29.377,6.715
			c4.197,15.948,7.554,30.216,9.233,41.128c5.036,5.036,8.393,11.751,8.393,19.305c0,14.269-10.911,25.18-25.18,25.18
			s-25.18-10.911-25.18-25.18c0-6.715,2.518-13.429,7.554-17.626c-0.839-5.036-5.036-19.305-10.911-36.931
			c-25.18,2.518-55.397,4.197-88.131,4.197c-31.895,0-61.272-1.679-87.292-4.197c-6.715,19.305-10.072,34.413-10.911,37.77h-0.839
			c4.197,4.197,6.715,10.072,6.715,16.787c0,14.269-10.911,25.18-25.18,25.18s-25.18-10.911-25.18-25.18
			c0-8.393,4.197-16.787,10.911-20.984c1.679-10.911,5.036-24.341,9.233-38.61c-11.751-2.518-22.662-4.197-31.056-7.554H80.285
			c-22.662,0-42.807,16.787-46.164,39.449v0.839c-1.679,7.554-0.839,15.948,0,24.341c1.679,14.269,1.679,31.056-2.518,50.361
			c-2.518,13.43-5.875,25.18-10.072,35.252c-5.875,13.43-10.072,26.859-12.59,41.967l-0.839,5.036
			c-5.036,28.538,17.626,54.557,47.003,54.557h392.813C476.456,444.141,498.279,418.121,494.082,389.584"/>
	</g>
	<g>
		<path style="fill:#FDCC00;" d="M158.344,259.485c0,14.269-10.911,25.18-25.18,25.18s-25.18-10.911-25.18-25.18
			s10.911-25.18,25.18-25.18C147.433,234.305,158.344,245.216,158.344,259.485"/>
		<path style="fill:#FDCC00;" d="M393.361,259.485c0,14.269-10.911,25.18-25.18,25.18S343,273.754,343,259.485
			s10.911-25.18,25.18-25.18S393.361,245.216,393.361,259.485"/>
	</g>
	<path style="fill:#00DA6C;" d="M233.885,343.42c0,14.269-7.554,25.18-16.787,25.18c-9.233,0-16.787-10.911-16.787-25.18
		s7.554-25.18,16.787-25.18C226.331,318.239,233.885,329.151,233.885,343.42"/>
	<path style="fill:#FFA800;" d="M494.082,389.584l-0.839-5.036c-2.518-14.269-6.715-28.538-12.59-41.967
		c-4.197-10.072-8.393-22.662-10.072-35.252c-3.357-18.466-4.197-36.092-2.518-50.361c0.839-8.393,1.679-15.948,0-24.341v-0.839
		c-4.197-22.662-24.341-39.449-47.003-39.449h-16.787c-0.839,0-1.679,0-1.679,0.839c20.144,2.518,36.092,18.466,40.289,38.61v0.839
		c1.679,7.554,0.839,15.948,0,24.341c-1.679,14.269-1.679,31.056,2.518,50.361c2.518,13.43,5.875,25.18,10.072,35.252
		c5.875,13.43,10.072,26.859,12.59,41.967l0.839,5.036c5.036,28.538-17.626,54.557-46.164,54.557h25.18
		C476.456,444.141,498.279,418.121,494.082,389.584"/>
	<path style="fill:#FFFFFF;" d="M8.102,389.584l0.839-5.036c2.518-14.269,6.715-28.538,12.59-41.967
		c4.197-10.072,8.393-22.662,10.072-35.252c3.357-18.466,4.197-36.092,2.518-50.361c-0.839-8.393-1.679-15.948,0-24.341v-0.839
		c4.197-22.662,23.502-39.449,47.003-39.449h16.787c0.839,0,1.679,0,1.679,0.839c-20.144,2.518-36.092,18.466-40.289,38.61v0.839
		c-1.679,7.554-0.839,15.948,0,24.341c1.679,14.269,1.679,31.056-2.518,50.361c-2.518,13.43-5.875,25.18-10.072,35.252
		c-5.875,13.43-10.072,26.859-12.59,41.967l-0.839,5.036c-5.036,28.538,17.626,54.557,47.003,54.557h-25.18
		C25.728,444.141,3.066,418.121,8.102,389.584"/>
	<path d="M133.164,293.059c-18.466,0-33.574-15.108-33.574-33.574s15.108-33.574,33.574-33.574s33.574,15.108,33.574,33.574
		S151.63,293.059,133.164,293.059z M133.164,242.698c-9.233,0-16.787,7.554-16.787,16.787s7.554,16.787,16.787,16.787
		s16.787-7.554,16.787-16.787S142.397,242.698,133.164,242.698z"/>
	<path d="M368.18,293.059c-18.466,0-33.574-15.108-33.574-33.574s15.108-33.574,33.574-33.574s33.574,15.108,33.574,33.574
		S386.646,293.059,368.18,293.059z M368.18,242.698c-9.233,0-16.787,7.554-16.787,16.787s7.554,16.787,16.787,16.787
		c9.233,0,16.787-7.554,16.787-16.787S377.413,242.698,368.18,242.698z"/>
	<path d="M153.308,251.092h-0.839c-2.518,0-5.036-0.839-5.875-2.518c-5.875-5.875-15.108-7.554-21.823-2.518
		c-2.518,1.679-6.715,1.679-9.233,0s-4.197-5.036-3.357-8.393c2.518-20.144,35.252-188.013,140.171-188.013
		c103.239,0,135.974,161.993,141.01,188.013c0,0.839,0.839,1.679,0.839,3.357c0,5.036-3.357,8.393-8.393,8.393l0,0
		c-1.679,0-4.197-0.839-5.875-1.679c-2.518-2.518-6.715-5.036-11.751-5.036c-4.197,0-8.393,1.679-11.751,5.036
		c-2.518,2.518-5.036,3.357-8.393,2.518c-2.518-0.839-5.036-3.357-5.875-5.875c-8.393-41.128-42.807-144.367-91.488-144.367
		c-49.521,0-83.095,114.151-89.81,144.367C160.862,248.574,156.666,251.092,153.308,251.092z M133.164,225.911
		c5.036,0,10.072,0.839,14.269,3.357c10.072-36.931,42.807-146.046,103.239-146.046c61.272,0,95.685,108.275,104.918,145.207
		c5.875-2.518,11.751-2.518,17.626-1.679c-13.43-66.308-52.039-160.315-120.866-160.315c-78.898,0-111.633,116.669-121.705,159.475
		C131.485,225.911,132.325,225.911,133.164,225.911z"/>
	<path d="M447.079,452.534H55.105c-15.948,0-31.895-7.554-42.807-19.305c-10.911-12.59-15.108-28.538-12.59-45.325l0.839-5.036
		c2.518-13.43,6.715-27.698,13.43-43.646c4.197-10.072,7.554-21.823,10.072-33.574c3.357-16.787,4.197-33.574,1.679-47.003
		c-1.679-10.072-1.679-18.466,0-26.859v-0.839c5.036-27.698,27.698-47.003,55.397-47.003h16.787c0.839,0,1.679,0,2.518,0
		c8.393,2.518,18.466,5.036,30.216,6.715c2.518,0.839,4.197,1.679,5.875,4.197c0.839,1.679,1.679,4.197,0.839,6.715
		c-4.197,15.948-7.554,29.377-8.393,37.77c0,2.518-1.679,4.197-3.357,5.875c-5.036,3.357-7.554,8.393-7.554,14.269
		c0,9.233,7.554,16.787,16.787,16.787s16.787-7.554,16.787-16.787c0-5.036-2.518-9.233-4.197-10.911
		c-2.518-2.518-2.518-5.875-1.679-9.233c0-0.839,0.839-1.679,0.839-1.679c1.679-6.715,5.036-20.144,10.072-35.252
		c0.839-3.357,5.036-5.875,9.233-5.875c53.718,5.875,121.705,5.875,174.584,0c4.197-0.839,7.554,1.679,9.233,5.875
		c6.715,20.984,10.072,36.092,10.911,37.77c0.839,2.518,0,5.875-2.518,7.554c-5.036,3.357-6.715,7.554-6.715,11.751
		c0,9.233,7.554,16.787,16.787,16.787c9.233,0,16.787-7.554,16.787-16.787c0-5.036-1.679-9.233-5.875-12.59
		c-1.679-1.679-2.518-3.357-2.518-5.036c-1.679-9.233-4.197-23.502-9.233-40.289c-0.839-2.518,0-5.036,0.839-6.715
		c0.839-1.679,3.357-3.357,5.875-4.197c10.911-1.679,20.144-4.197,28.538-6.715c0.839,0,1.679,0,2.518,0h16.787
		c27.698,0,50.361,19.305,54.557,46.164v0.839c1.679,8.393,1.679,16.787,0,26.859c-1.679,13.43-0.839,30.216,1.679,47.003
		c2.518,11.751,5.875,23.502,10.072,33.574c6.715,15.948,10.911,30.216,13.43,43.646l0.839,5.036
		c2.518,15.948-1.679,32.734-12.59,45.325C478.974,444.98,463.866,452.534,447.079,452.534z M81.125,200.731
		c-19.305,0-35.252,13.43-38.61,32.734v0.839c-0.839,6.715-0.839,13.43,0,21.823c2.518,15.108,1.679,33.574-2.518,52.879
		c-2.518,13.43-5.875,26.02-10.911,36.931c-5.875,14.269-9.233,26.859-11.751,39.449l-0.839,5.036
		c-1.679,10.911,1.679,22.662,8.393,31.056c7.554,9.233,18.466,14.269,30.216,14.269h392.813c11.751,0,21.823-5.036,29.377-13.43
		s10.911-20.144,8.393-31.056l-0.839-5.875c-1.679-12.59-5.875-25.18-11.751-39.449c-5.036-10.911-8.393-23.502-10.911-36.931
		c-3.357-18.466-4.197-37.77-2.518-52.879c0.839-8.393,0.839-15.108,0-21.823v-0.839c-3.357-18.466-19.305-32.734-38.61-32.734
		h-15.108c-5.875,1.679-12.59,3.357-20.144,5.036c3.357,12.59,5.036,22.662,6.715,31.056c5.875,5.875,9.233,14.269,9.233,22.662
		c0,18.466-15.108,33.574-33.574,33.574s-33.574-15.108-33.574-33.574c0-7.554,2.518-14.269,6.715-20.144
		c-1.679-5.875-4.197-15.108-7.554-26.02c-51.2,5.036-113.311,5.036-164.511,0c-4.197,12.59-6.715,22.662-7.554,27.698
		c3.357,5.036,5.036,11.751,5.036,17.626c0,18.466-15.108,33.574-33.574,33.574S99.59,277.111,99.59,258.646
		c0-10.072,4.197-19.305,11.751-26.02c1.679-9.233,3.357-18.466,5.875-27.698c-8.393-1.679-15.108-3.357-21.823-5.036H81.125
		V200.731z"/>
	<path d="M326.213,326.633H175.131c-5.036,0-8.393-3.357-8.393-8.393s3.357-8.393,8.393-8.393h151.082
		c5.036,0,8.393,3.357,8.393,8.393S331.249,326.633,326.213,326.633z"/>
	<path d="M217.098,376.993c-14.269,0-25.18-15.108-25.18-33.574s10.911-33.574,25.18-33.574c14.269,0,25.18,15.108,25.18,33.574
		S231.367,376.993,217.098,376.993z M217.098,326.633c-3.357,0-8.393,6.715-8.393,16.787s5.036,16.787,8.393,16.787
		c3.357,0,8.393-6.715,8.393-16.787S220.456,326.633,217.098,326.633z"/>
</g>
</svg>